<?xml version="1.0" standalone="no"?>
<!DOCTYPE svg PUBLIC "-//W3C//DTD SVG 20010904//EN"
 "http://www.w3.org/TR/2001/REC-SVG-20010904/DTD/svg10.dtd">
<svg version="1.0" xmlns="http://www.w3.org/2000/svg"
 width="120.000000pt" height="80.000000pt" viewBox="0 0 120.000000 80.000000"
 preserveAspectRatio="xMidYMid meet">

<g transform="translate(0.000000,80.000000) scale(0.100000,-0.100000)"
fill="#000000" stroke="none">
<path d="M66 341 l-29 -30 29 -6 c189 -37 301 -91 464 -222 31 -25 29 -21 -14
30 -55 65 -120 120 -130 110 -3 -3 -6 -1 -6 5 0 27 -218 140 -271 142 -8 0
-28 -13 -43 -29z"/>
<path d="M1005 342 c-122 -49 -239 -132 -322 -230 l-48 -57 50 41 c139 113
267 173 449 209 l29 6 -29 30 c-15 16 -35 29 -43 29 -9 -1 -47 -13 -86 -28z"/>
<path d="M41 216 l-35 -36 65 0 c131 -1 281 -38 405 -101 41 -20 74 -35 74
-33 0 8 -130 94 -180 119 -76 38 -185 74 -245 81 -48 6 -52 4 -84 -30z"/>
<path d="M1045 243 c-109 -24 -237 -82 -332 -150 -73 -51 -82 -65 -19 -28 106
62 308 115 439 115 l61 0 -34 35 c-34 35 -58 41 -115 28z"/>
</g>
</svg>
